<svg width="56" height="42" viewBox="0 0 56 42" fill="none" xmlns="http://www.w3.org/2000/svg">
<path d="M31.6692 3.41628H30.9852V2.14355H41.6899V3.41628C40.8691 3.44977 40.1851 3.55025 39.6037 3.75121C39.0223 3.95216 38.4751 4.2536 37.9279 4.65551C37.3807 5.05743 36.7309 5.6268 35.9443 6.33015L30.1302 10.5168L27.0864 12.7608C27.0864 12.7608 32.0112 7.26795 32.5584 6.63159C33.0714 5.96173 33.345 5.32537 33.345 4.7225C33.345 4.2536 33.2082 3.91867 32.9688 3.71771C32.6952 3.51676 32.2848 3.41628 31.6692 3.41628ZM55.1305 25.5885C55.1305 27.2297 54.7543 28.6364 53.9677 29.7751C53.1811 30.9139 52.1551 31.7847 50.7871 32.3541C49.6243 32.8565 48.3247 33.1579 46.8883 33.2249C46.9225 33.5598 46.9567 33.8613 46.9567 34.2297C46.9567 35.8708 46.5805 37.2775 45.7939 38.4163C45.0073 39.555 43.9813 40.4258 42.6133 40.9952C41.2795 41.5646 39.7747 41.866 38.0647 41.866C36.5599 41.866 35.3286 41.7656 34.371 41.5311C33.4134 41.3302 32.6952 41.0957 32.148 40.8947C31.6008 40.6938 31.1562 40.5598 30.8142 40.5598C30.5064 40.5598 30.267 40.6938 30.0276 40.9282C29.7882 41.1962 29.6514 41.5311 29.6514 41.9665H28.2834V32.7225C28.2834 28.4019 27.3258 25.2871 25.3422 23.1436C24.7608 22.5072 23.9058 22.0048 22.8798 21.5694C21.7512 21.1005 20.3832 20.6986 18.9126 20.3302C18.0576 20.1292 17.1684 19.9282 16.2792 19.7273C14.364 19.3254 12.312 18.8565 10.4652 18.2536C7.83181 17.4163 5.81401 16.0431 4.44601 14.201C3.249 12.5933 2.6334 10.6507 2.5992 8.64116C2.5992 6.86604 3.078 5.12441 3.96721 3.68422C4.89061 2.21054 6.19021 1.10527 7.62661 0.636373C9.30241 0.100487 10.8756 -0.100469 12.2778 0.100488C13.5774 0.267952 14.7402 0.736851 15.6978 1.50719C15.9372 1.70814 16.1766 1.9091 16.3818 2.14355H27.1548V3.14833C25.7868 3.14833 24.795 3.58374 24.1794 3.81819C23.5638 4.08613 23.1876 4.52154 23.0508 5.1579C22.914 5.79427 22.8456 6.66508 22.8456 7.80384V15.5742V17.2488V20.7321C24.1452 21.2345 25.2396 21.8373 25.9578 22.6412C27.1548 23.9474 28.0098 25.6555 28.5228 27.6986C28.899 29.2058 29.07 30.8469 29.07 32.7895C29.07 32.7895 30.3354 36.2727 31.0194 37.311C31.7034 38.3493 32.5926 39.0526 33.6186 39.4546C34.6446 39.823 35.9101 40.0239 37.3807 40.0239C38.4751 40.0239 39.4327 39.89 40.2193 39.5885C41.0059 39.2871 41.6215 38.8182 42.0661 38.1483C42.5107 37.4785 42.7159 36.6077 42.7159 35.5024C42.7159 34.4641 42.4765 33.5933 41.9977 32.8565C41.0059 30.4785 28.899 27.2632 27.9072 21.5024L23.0508 16.6794L24.7608 15.0048C25.2054 14.5694 25.9578 14.5694 26.4024 15.0048L28.8648 17.4163C29.0358 16.8804 29.3094 16.378 29.6514 15.9091C30.4038 14.9043 31.4298 14.134 32.661 13.5646C33.9264 13.0287 35.2944 12.7608 36.7993 12.7608H36.8335C36.7309 12.2249 36.6625 11.6555 36.6625 11.0526C36.6625 9.54546 37.0387 8.27274 37.7911 7.26795C38.5435 6.26317 39.5695 5.49283 40.8007 4.92345C42.0661 4.38757 43.4341 4.11963 44.9389 4.11963C46.2727 4.11963 47.2987 4.2201 48.0511 4.45455C48.7693 4.65551 49.3507 4.88996 49.7611 5.12441C50.1715 5.35886 50.5819 5.45934 50.9239 5.45934C51.2659 5.45934 51.5737 5.35886 51.7789 5.1914C51.9841 4.99044 52.1551 4.689 52.2919 4.2201H53.4205L53.7283 12.7608H52.4287C51.8131 10.3828 50.9923 8.64116 49.9663 7.5024C48.9403 6.36365 47.3329 5.79427 45.1099 5.82776C43.6393 5.82776 42.4765 6.16269 41.6557 6.83254C40.8349 7.5024 40.4245 8.50719 40.4245 9.8469C40.4245 10.9187 40.6981 11.823 41.3479 12.5598C42.9895 14.4019 45.3493 15.5407 45.3493 15.5407C45.8623 15.8421 46.3411 16.1435 46.8541 16.445C47.8117 16.9809 48.7693 17.5168 49.7611 18.0861C50.7529 18.622 51.6079 19.2249 52.4287 19.9282C53.2153 20.5981 53.8651 21.4019 54.3439 22.3397C54.8911 23.2105 55.1305 24.3158 55.1305 25.5885ZM18.9468 7.77034C18.9468 6.66508 18.8784 5.79427 18.7416 5.12441C18.6048 4.48805 18.2286 4.01915 17.613 3.7847C17.5788 3.7847 17.5446 3.75121 17.5104 3.75121C17.5788 3.91867 17.6814 4.08613 17.7498 4.28709C18.1602 5.35886 18.297 6.5646 18.126 7.73685C17.955 9.07656 17.5104 10.2153 16.8606 11.1531C16.3134 11.89 15.6294 12.4928 14.8086 12.9282C13.8168 13.4641 13.167 13.5981 12.0726 13.6651H12.0384C10.5336 13.6651 9.30241 12.4593 9.30241 10.9857C9.30241 9.51197 10.5336 8.30623 12.0384 8.30623C13.5432 8.30623 14.7744 9.51197 14.7744 10.9857C14.7744 11.3876 14.6718 11.7895 14.5008 12.1244C16.074 11.2536 16.9974 9.71293 17.271 7.60288C17.4762 6.06221 17.1 4.52154 16.3134 3.3158C16.0056 2.8469 15.6294 2.44499 15.219 2.11006C13.4406 0.669866 10.8414 0.435416 7.93441 1.37321C5.33521 2.24403 3.42 5.29187 3.45421 8.64116C3.45421 12.7273 6.19021 16.0431 10.7388 17.5168C12.5514 18.1196 14.5692 18.555 16.5186 18.9904C17.3394 19.1914 18.1602 19.3589 18.9468 19.5598V7.77034ZM50.9923 26.8278C50.9923 25.5885 50.6503 24.5168 49.9321 23.7129C49.2139 22.8756 48.3247 22.1388 47.1961 21.5024C46.6831 21.201 46.1359 20.8995 45.5887 20.5981L43.7419 19.5598C42.5791 18.89 41.4505 18.2201 40.3903 17.4498C39.2959 16.7129 38.4409 15.8086 37.7569 14.8038C37.6885 14.7034 37.6201 14.5694 37.5517 14.4689C37.3807 14.4689 37.2097 14.4689 37.0387 14.4689C35.5681 14.4689 34.4052 14.8038 33.5844 15.4737C32.7636 16.1436 32.3532 17.1483 32.3532 18.488C32.3532 19.5598 32.661 20.4641 33.2766 21.201C33.8923 21.9713 34.6788 22.6412 35.6707 23.244C36.1495 23.5455 38.3383 24.8517 38.7829 25.0861C39.7405 25.622 40.6981 26.1579 41.6899 26.7273C42.6817 27.2632 43.5367 27.866 44.3575 28.5694C45.1441 29.2392 45.7939 30.0431 46.2727 30.9809C46.3411 31.1148 46.4095 31.2488 46.4779 31.3828C47.2645 31.3158 47.9485 31.1818 48.5299 30.9474C49.3165 30.6459 49.9321 30.177 50.3767 29.5072C50.7871 28.8038 50.9923 27.8995 50.9923 26.8278ZM25.821 26.6268C28.3518 32.0192 26.2998 37.8469 26.2998 37.8469C25.7526 32.4546 24.453 28.6029 24.0768 27.5311C25.308 31.0144 25.5816 37.8469 25.5816 37.8469C19.9386 29.7081 20.8962 21.5359 20.8962 21.5359C20.8962 21.5359 23.94 22.6412 25.821 26.6268ZM21.9564 33.7608C21.9564 33.7608 18.3996 28.9713 17.3394 25.9569C17.6472 26.8947 18.9126 30.177 21.4776 34.1292C21.4776 34.1292 21.3408 34.0287 21.1014 33.8613C20.7252 34.2967 18.9468 36.0718 13.509 36.5072C7.21621 37.0096 1.197 30.0096 1.197 30.0096C1.197 30.0096 7.07941 35.268 13.338 35.5359C18.7758 35.7369 20.6568 34.2632 21.033 33.8947C19.9044 33.0574 16.6212 30.4115 15.5952 26.2919C14.6718 22.6077 16.1424 20.2632 16.1424 20.2632C16.1424 20.2632 21.3066 25.2536 21.9564 33.7608ZM15.5952 29.7081C15.5952 29.7081 12.825 25.9569 12.0042 23.6459C12.2436 24.3158 13.2012 26.8947 15.219 30.0096C15.219 30.0096 11.6622 27.7991 10.7046 23.9139C9.98641 21.067 11.1492 19.2249 11.1492 19.2249C11.1492 19.2249 15.0822 23.1436 15.5952 29.7081ZM11.97 23.579C11.97 23.5455 11.97 23.512 11.9358 23.512C11.9358 23.4785 11.9358 23.512 11.97 23.579ZM3.1464 15.5072C4.75381 17.2153 6.25861 18.2871 7.28461 18.89C7.83181 19.2249 8.27641 19.4258 8.61841 19.5598C8.44741 19.6938 8.34481 19.8947 8.34481 20.1292C8.34481 20.5311 8.68681 20.866 9.09721 20.866C9.50761 20.866 9.84961 20.5311 9.84961 20.1292C9.84961 19.7273 9.54181 19.4258 9.16561 19.3924C8.65261 19.1914 6.12181 18.1531 3.45421 15.2727C1.881 13.5646 1.197 11.823 0.889201 10.6507C0.684001 10.0479 0.615601 9.54546 0.581401 9.17704C0.684001 9.24403 0.820801 9.27752 0.957601 9.27752C1.368 9.27752 1.71 8.94259 1.71 8.54068C1.71 8.13877 1.368 7.80384 0.957601 7.80384C0.547201 7.80384 0.2394 8.10527 0.2052 8.50719C0.2052 8.54068 0.171 9.44499 0.478801 10.7512C0.786601 11.9569 1.5048 13.7656 3.1464 15.5072ZM8.44741 27.6651C3.078 23.4115 2.052 15.4067 2.052 15.4067C1.9152 19.5263 4.24081 25.689 7.69501 28.6699C11.1492 31.6507 15.0822 30.8134 15.0822 30.8134C9.98641 29.9426 8.44741 27.6651 8.44741 27.6651ZM8.55001 32.6555C13.5432 35.6029 18.639 33.1914 18.639 33.1914C16.074 33.3254 13.509 33.4258 8.78941 31.3158C4.10401 29.1723 0 22.1723 0 22.1723C0 22.1723 3.59101 29.6747 8.55001 32.6555Z" fill="#FDEFF4"/>
</svg>
